<svg width="800" height="1000" viewBox="0 0 800 1000" fill="none" xmlns="http://www.w3.org/2000/svg">
  <rect width="800" height="1000" fill="#F3F4F6"/>
  <rect x="60" y="60" width="680" height="160" rx="8" fill="#E5E7EB"/>
  <rect x="80" y="100" width="240" height="24" rx="4" fill="#D1D5DB"/>
  <rect x="80" y="140" width="160" height="16" rx="4" fill="#D1D5DB"/>
  <rect x="480" y="100" width="240" height="80" rx="4" fill="#D1D5DB"/>
  
  <rect x="60" y="260" width="680" height="400" rx="8" fill="#E5E7EB"/>
  <rect x="80" y="280" width="640" height="16" rx="4" fill="#D1D5DB"/>
  <rect x="80" y="312" width="640" height="16" rx="4" fill="#D1D5DB"/>
  <rect x="80" y="344" width="480" height="16" rx="4" fill="#D1D5DB"/>
  <rect x="80" y="396" width="640" height="16" rx="4" fill="#D1D5DB"/>
  <rect x="80" y="428" width="640" height="16" rx="4" fill="#D1D5DB"/>
  <rect x="80" y="460" width="480" height="16" rx="4" fill="#D1D5DB"/>
  <rect x="80" y="512" width="640" height="16" rx="4" fill="#D1D5DB"/>
  <rect x="80" y="544" width="640" height="16" rx="4" fill="#D1D5DB"/>
  <rect x="80" y="576" width="480" height="16" rx="4" fill="#D1D5DB"/>
  <rect x="80" y="608" width="320" height="16" rx="4" fill="#D1D5DB"/>
  
  <rect x="60" y="700" width="680" height="240" rx="8" fill="#E5E7EB"/>
  <rect x="80" y="720" width="200" height="24" rx="4" fill="#D1D5DB"/>
  <rect x="80" y="764" width="640" height="16" rx="4" fill="#D1D5DB"/>
  <rect x="80" y="796" width="640" height="16" rx="4" fill="#D1D5DB"/>
  <rect x="80" y="828" width="480" height="16" rx="4" fill="#D1D5DB"/>
  <rect x="80" y="880" width="320" height="16" rx="4" fill="#D1D5DB"/>
</svg> 